<?xml version="1.0" encoding="UTF-8" standalone="no"?>
<!-- Generator: Adobe Illustrator 23.0.1, SVG Export Plug-In . SVG Version: 6.00 Build 0)  -->

<svg
   version="1.1"
   id="Livello_1"
   x="0px"
   y="0px"
   width="359.01733"
   height="109.82362"
   viewBox="0 0 359.01733 109.82362"
   enable-background="new 0 0 354 106.202"
   xml:space="preserve"
   sodipodi:docname="Sapienza_logo - Copia.svg"
   inkscape:version="1.1 (c68e22c387, 2021-05-23)"
   xmlns:inkscape="http://www.inkscape.org/namespaces/inkscape"
   xmlns:sodipodi="http://sodipodi.sourceforge.net/DTD/sodipodi-0.dtd"
   xmlns="http://www.w3.org/2000/svg"
   xmlns:svg="http://www.w3.org/2000/svg"><defs
   id="defs61" /><sodipodi:namedview
   id="namedview59"
   pagecolor="#ffffff"
   bordercolor="#cccccc"
   borderopacity="1"
   inkscape:pageshadow="0"
   inkscape:pageopacity="1"
   inkscape:pagecheckerboard="0"
   showgrid="false"
   inkscape:zoom="3.5875706"
   inkscape:cx="178.81181"
   inkscape:cy="54.772441"
   inkscape:window-width="1920"
   inkscape:window-height="1001"
   inkscape:window-x="-9"
   inkscape:window-y="-9"
   inkscape:window-maximized="1"
   inkscape:current-layer="Livello_1" />
<rect
   style="fill:#ffffff;fill-opacity:0.8;stroke-width:5.669;stroke-miterlimit:10;stroke-dasharray:22.6231, 22.6231;stroke-opacity:0;paint-order:stroke fill markers"
   id="rect900"
   width="359.01733"
   height="109.82362"
   x="0"
   y="0" /><g
   id="g56"
   transform="translate(1.9511811,2.2299213)">
	<g
   id="g6">
		<path
   fill-rule="evenodd"
   clip-rule="evenodd"
   fill="#822433"
   d="m 88.508,53.102 c 0,29.288 -19.853,53.1 -44.257,53.1 C 19.843,106.202 0,82.39 0,53.102 0,23.821 19.843,0 44.251,0 68.655,0 88.508,23.821 88.508,53.102"
   id="path2" />
		<path
   fill-rule="evenodd"
   clip-rule="evenodd"
   fill="#ffffff"
   d="m 45.095,17 c 0,1.667 0.01,5.945 0,7.492 0,0.694 0.259,1.19 0.587,1.547 0.195,0.199 0.363,0.33 0.529,0.428 0.06,0.053 0.324,0.152 0.418,0.152 0.136,0.022 0.312,0.039 0.532,0.03 0.533,-0.039 1.059,-0.222 1.534,-0.74 1.012,-1.105 3.157,-3.398 4.073,-4.383 0.27,-0.289 -0.015,-0.335 -0.245,-0.327 -1.879,0.051 -3.89,1.845 -5.258,3.072 -0.17,-1.845 -0.453,-5.963 -1.816,-7.525 C 45.287,16.572 45.095,16.58 45.095,17 m -1.728,-0.254 c -1.371,1.562 -1.616,5.681 -1.773,7.525 -1.372,-1.227 -3.385,-3.02 -5.261,-3.072 -0.229,-0.008 -0.521,0.037 -0.253,0.327 0.914,0.985 3.059,3.278 4.077,4.383 0.474,0.518 0.998,0.701 1.487,0.731 0.27,0.017 0.438,0 0.577,-0.022 0.093,0 0.357,-0.1 0.42,-0.152 0.172,-0.098 0.334,-0.229 0.496,-0.388 0.363,-0.397 0.622,-0.893 0.616,-1.587 0,-1.547 0.006,-5.825 0.006,-7.492 0.005,-0.419 -0.239,-0.427 -0.392,-0.253 M 27.43,55.105 c 0.123,-1.41 -0.83,-2.622 -2.17,-2.88 -0.183,-0.014 -0.366,-0.03 -0.539,-0.053 C 18.913,51.615 13.171,49.953 7.844,47.149 7.721,47.078 7.61,47.21 7.67,47.33 c 0.331,0.633 1.282,1.365 2.734,2.393 1.656,1.183 7.06,3.797 11.66,4.704 1.768,0.351 3.563,0.578 5.366,0.678 m 4.37,6.711 c 0.071,-0.519 -0.026,-1.206 -0.283,-1.824 -0.098,-0.457 -0.424,-0.875 -0.841,-1.203 -0.673,-0.535 -1.534,-0.853 -2.194,-0.875 -5.984,-0.337 -11.813,-2.433 -16.991,-6.071 -0.26,-0.181 -0.357,-0.06 -0.154,0.192 0.904,1.105 1.795,2.271 2.951,3.171 3.504,2.736 7.579,4.368 11.727,5.1 0.888,0.158 1.793,0.274 2.692,0.349 0.201,0.008 0.335,0 0.368,0.061 0.039,0.054 0.042,0.205 -0.012,0.397 -0.076,0.875 -0.122,1.768 -0.122,2.659 0,4.125 0.928,8.334 3.049,12.198 0.701,1.273 1.721,2.34 2.673,3.4 0.216,0.244 0.343,0.168 0.209,-0.108 C 32.138,73.622 31.069,67.645 31.8,61.816 m 5.098,4.649 c 0.012,-0.174 0.026,-0.359 0.036,-0.528 -0.021,-1.339 -1.061,-2.476 -2.455,-2.606 h -0.053 c -0.212,1.753 -0.306,3.523 -0.263,5.3 0.087,4.581 1.847,10.252 2.741,12.059 0.777,1.577 1.342,2.628 1.921,3.048 0.116,0.084 0.255,0 0.213,-0.129 -1.876,-5.635 -2.614,-11.448 -2.14,-17.144 m 5.703,1.379 c 0,-0.007 0.076,-0.67 0.079,-0.679 0.335,-2.129 -0.404,-4.268 -1.732,-5.776 C 38.753,58.887 35.094,58.682 33.64,57.096 32.2,55.503 32.763,51.485 30.546,49.176 29.153,47.719 27.188,46.797 24.99,46.744 L 24.381,46.72 C 18.074,46.644 12.286,45.469 6.289,43.053 6.08,42.97 5.83,43.161 5.998,43.396 c 0.55,0.733 1.713,1.786 3.757,2.646 6.39,2.707 15.078,3.346 15.103,3.346 3.696,0.184 5.316,3.447 6.16,6.282 0.289,0.968 0.721,1.878 1.22,2.455 0.487,0.587 1.306,1.271 2.261,1.738 2.703,1.318 5.971,3.369 5.499,6.967 0,0.015 -1.174,8.5 0.406,15.131 0.508,2.129 1.266,3.432 1.908,4.087 0.206,0.205 0.439,0 0.389,-0.215 -1.352,-6.194 -1.158,-11.905 -0.1,-17.989 M 25.172,42.27 c -0.817,0.19 -2.682,0.662 -3.902,1.172 -0.198,0.078 -0.244,0.428 0.01,0.528 1.368,0.541 4.504,0.892 5.519,0.487 1.485,-0.58 1.159,-3.026 0.388,-4.062 -3.38,-4.805 -5.296,-10.559 -5.61,-16.795 -0.011,-0.312 -0.159,-0.312 -0.231,0 -0.319,1.381 -0.687,2.79 -0.687,4.232 -10e-4,5.343 1.77,10.306 4.513,14.438 m 0.82,-8.973 c 0.806,1.579 1.723,3.088 2.735,4.537 1.184,-0.787 1.55,-2.273 0.938,-3.461 -0.101,-0.147 -0.194,-0.298 -0.294,-0.445 -3.098,-4.786 -5.297,-10.22 -6.343,-16.045 -0.025,-0.137 -0.188,-0.145 -0.249,-0.015 -0.299,0.633 -0.289,1.829 -0.208,3.567 0.087,2.013 1.337,7.785 3.421,11.862 m 5.645,-0.999 c 2.109,2.943 0.539,6.212 -1.155,8.637 -2.076,2.941 0.475,6.671 0.352,4.491 -0.172,-3.21 3.882,-5.1 4.43,-8.905 0.281,-1.975 -0.184,-4.056 -1.486,-5.771 l -0.343,-0.474 c -3.783,-4.877 -6.391,-10.047 -8.16,-16.138 -0.061,-0.205 -0.36,-0.281 -0.442,0 -0.234,0.868 -0.346,2.41 0.217,4.52 1.786,6.573 6.577,13.625 6.587,13.64 m 30.045,8.097 c -0.767,1.036 -1.095,3.482 0.392,4.062 1.015,0.404 4.152,0.054 5.516,-0.487 0.253,-0.1 0.205,-0.45 0.003,-0.528 -1.209,-0.51 -3.08,-0.982 -3.903,-1.172 2.754,-4.132 4.523,-9.096 4.523,-14.438 0,-1.442 -0.37,-2.851 -0.687,-4.232 -0.071,-0.312 -0.217,-0.312 -0.233,0 -0.315,6.236 -2.226,11.99 -5.611,16.795 m -2.477,-6.022 c -0.618,1.188 -0.252,2.674 0.892,3.437 1.058,-1.425 1.966,-2.934 2.775,-4.513 2.094,-4.077 3.339,-9.849 3.426,-11.861 0.08,-1.738 0.087,-2.935 -0.211,-3.567 -0.061,-0.13 -0.22,-0.122 -0.242,0.015 -1.052,5.825 -3.247,11.259 -6.352,16.045 z m -1.176,11.053 c -0.122,2.18 2.436,-1.55 0.355,-4.491 -1.699,-2.425 -3.265,-5.694 -1.159,-8.637 0.015,-0.015 4.814,-7.067 6.588,-13.638 0.569,-2.111 0.461,-3.652 0.217,-4.52 -0.076,-0.281 -0.375,-0.205 -0.436,0 -1.774,6.091 -4.371,11.26 -8.168,16.138 0,0 -0.339,0.474 -0.342,0.474 -1.305,1.714 -1.766,3.796 -1.482,5.771 0.544,3.803 4.605,5.693 4.427,8.903 M 44.251,102.744 C 21.56,102.744 3.102,80.469 3.102,53.103 3.102,25.736 21.561,3.469 44.251,3.469 c 22.69,0 41.149,22.267 41.149,49.634 10e-4,27.365 -18.458,49.641 -41.149,49.641 m 0,-100.793 c -23.509,0 -42.63,22.945 -42.63,51.152 0,28.204 19.121,51.149 42.63,51.149 23.509,0 42.627,-22.945 42.627,-51.149 0,-28.207 -19.117,-51.152 -42.627,-51.152 m -8.192,50.808 c -1.08,0 -2.007,-0.924 -2.189,-1.32 -0.535,2.501 0.836,3.674 2.835,4.041 -0.342,-0.809 -0.564,-1.663 -0.645,-2.523 v -0.198 z m 0.056,-1.937 c 0.05,-0.777 0.062,-1.73 0.086,-2.469 -1.792,-0.199 -2.937,-1.563 -3.174,-1.899 -1.097,1.76 0.154,3.963 3.088,4.368 m 16.52,2.096 c -0.076,0.853 -0.296,1.708 -0.648,2.513 2.001,-0.363 3.282,-1.537 2.759,-4.038 -0.188,0.396 -1.028,1.32 -2.11,1.32 v 0.205 z m 3.036,-6.501 c -0.24,0.328 -1.378,1.692 -3.174,1.889 0.029,0.733 0.04,1.701 0.089,2.472 2.93,-0.405 4.183,-2.608 3.085,-4.361 m -9.187,-4.414 c 5.94,3.415 8.114,0.267 8.114,0.267 0,0 2.171,2.591 -1.565,3.598 -3.948,1.065 -6.621,-1.343 -7.257,-1.807 -1.177,-0.87 -1.423,-3.278 0.708,-2.058 m 3.186,-3.095 c 2.279,1.386 3.04,1.425 3.04,1.425 0,0 -0.079,2.378 -3.481,1.075 -1.197,-0.465 -4.836,-2.508 -4.22,-3.361 1.03,-1.434 2.818,-0.276 4.661,0.861 m -7.451,3.095 c -5.94,3.415 -8.025,0.267 -8.025,0.267 0,0 -2.261,2.591 1.475,3.598 3.948,1.065 6.621,-1.343 7.257,-1.807 1.177,-0.87 1.422,-3.278 -0.707,-2.058 m -3.187,-3.095 c -2.281,1.386 -2.948,1.425 -2.948,1.425 0,0 -0.015,2.378 3.387,1.075 1.198,-0.465 4.83,-2.508 4.222,-3.361 -1.037,-1.434 -2.819,-0.276 -4.661,0.861 M 51.209,51.92 c -0.1,-1.014 -0.234,-2.843 -0.27,-3.811 -2.795,0 -5.758,-2.134 -6.586,-3.47 -0.828,1.336 -3.796,3.47 -6.589,3.47 -0.039,0.968 -0.17,2.797 -0.273,3.811 -0.191,1.852 0.469,3.774 1.698,5.153 0.637,0.716 1.429,1.411 2.309,1.814 0.071,0.03 0.158,0.061 0.244,0.1 l 0.42,0.183 c 0.235,0.122 0.374,0.306 0.601,0.472 0.652,0.472 1.563,0.442 1.587,0.442 0.03,0 0.939,0.03 1.59,-0.442 0.229,-0.166 0.364,-0.35 0.607,-0.472 l 0.418,-0.183 c 0.089,-0.039 0.168,-0.069 0.245,-0.1 0.878,-0.403 1.667,-1.098 2.303,-1.814 1.232,-1.379 1.888,-3.302 1.696,-5.153 m -3.588,-0.755 c -1.594,0 -1.929,-0.479 -1.929,-0.479 0,0 0.402,-1.335 1.926,-1.335 1.518,0 2.086,1.113 2.086,1.113 -0.047,0.168 0.087,0.701 -2.083,0.701 m -3.235,6.098 c -1.339,0 -2.428,-1.112 -2.428,-1.432 0,-0.32 4.859,-0.32 4.859,0 10e-4,0.32 -1.089,1.432 -2.431,1.432 m -3.307,-6.098 c -2.163,0 -2.032,-0.533 -2.081,-0.701 0,0 0.568,-1.113 2.093,-1.113 1.515,0 1.932,1.335 1.932,1.335 0,0 -0.346,0.479 -1.944,0.479 m 3.307,2.043 c 0.697,0 1.257,0.291 1.257,0.526 0,0.237 -0.561,0.528 -1.257,0.528 -0.688,0 -1.249,-0.291 -1.249,-0.528 0,-0.235 0.561,-0.526 1.249,-0.526 m 22.436,1.22 c 4.582,-0.907 9.996,-3.522 11.652,-4.704 1.449,-1.028 2.404,-1.76 2.718,-2.393 0.061,-0.12 -0.046,-0.252 -0.168,-0.181 -5.326,2.804 -11.064,4.466 -16.872,5.023 -0.179,0.022 -0.361,0.039 -0.539,0.053 -1.342,0.259 -2.297,1.471 -2.17,2.88 1.8,-0.101 3.594,-0.328 5.379,-0.678 M 53.999,79.262 c -0.137,0.276 0,0.352 0.208,0.108 0.953,-1.059 1.973,-2.127 2.674,-3.4 2.123,-3.864 3.048,-8.072 3.048,-12.198 0,-0.89 -0.05,-1.784 -0.122,-2.659 -0.05,-0.192 -0.05,-0.343 -0.015,-0.397 0.035,-0.061 0.163,-0.053 0.368,-0.061 0.903,-0.075 1.802,-0.191 2.696,-0.349 4.148,-0.733 8.219,-2.364 11.728,-5.1 1.154,-0.9 2.044,-2.066 2.943,-3.171 0.204,-0.252 0.112,-0.374 -0.143,-0.192 -5.188,3.638 -11.011,5.735 -16.996,6.071 -0.658,0.022 -1.518,0.341 -2.192,0.875 -0.422,0.328 -0.742,0.746 -0.842,1.203 -0.256,0.618 -0.353,1.305 -0.283,1.824 0.734,5.829 -0.334,11.806 -3.072,17.446 m -4.16,4.347 c -0.047,0.129 0.096,0.213 0.211,0.129 0.582,-0.42 1.144,-1.471 1.922,-3.048 0.892,-1.807 2.648,-7.478 2.738,-12.059 0.044,-1.777 -0.05,-3.547 -0.262,-5.3 h -0.053 c -1.396,0.13 -2.446,1.267 -2.461,2.606 0.015,0.169 0.028,0.353 0.042,0.528 0.472,5.696 -0.27,11.509 -2.137,17.144 m -3.67,2.224 c -0.046,0.215 0.186,0.42 0.393,0.215 0.641,-0.655 1.4,-1.958 1.901,-4.087 1.586,-6.631 0.415,-15.116 0.415,-15.131 -0.482,-3.598 2.79,-5.649 5.495,-6.967 0.956,-0.467 1.773,-1.151 2.261,-1.738 0.497,-0.577 0.931,-1.487 1.219,-2.455 0.845,-2.835 2.466,-6.097 6.16,-6.282 0.021,0 8.712,-0.638 15.102,-3.346 2.04,-0.86 3.209,-1.914 3.758,-2.646 0.162,-0.235 -0.084,-0.427 -0.289,-0.342 -5.992,2.417 -11.786,3.591 -18.097,3.667 l -0.605,0.024 c -2.201,0.053 -4.161,0.975 -5.56,2.432 -2.21,2.309 -1.647,6.327 -3.09,7.92 -1.454,1.586 -5.113,1.791 -7.308,4.293 -1.327,1.508 -2.069,3.648 -1.734,5.776 0,0.008 0.086,0.672 0.086,0.679 1.055,6.083 1.248,11.794 -0.107,17.988 m 25.493,-3.275 c -0.079,-0.076 -0.168,-0.061 -0.233,-0.047 -0.231,0.047 -0.512,0.069 -0.741,0.04 -1.059,-0.14 -2.027,-0.208 -3.098,-0.337 0.205,-0.65 0.241,-1.816 -0.602,-2.594 -0.861,-0.785 -1.997,-0.379 -2.709,0.442 -0.305,0.353 -0.579,0.748 -0.884,1.115 -0.177,0.206 -0.575,0.618 -0.733,0.753 -0.122,0.101 -0.269,0.199 -0.366,0.321 -0.122,0.137 -0.162,0.289 -0.015,0.428 0.158,0.144 0.28,0.044 0.463,-0.161 0.31,-0.314 0.366,-0.267 0.645,-0.008 l 4.717,4.337 0.713,-1.051 -2.147,-1.975 0.091,-0.114 c 0.132,-0.154 0.201,-0.229 0.284,-0.391 l 2.385,0.259 c 0.781,0.1 1.375,0.291 1.986,-0.42 0.159,-0.18 0.32,-0.521 0.244,-0.597 m -5.397,-1.807 c 0.579,0.518 1.213,1.342 0.227,2.486 -0.093,0.104 -0.144,0.165 -0.215,0.226 L 64.05,81.422 c -0.082,-0.076 -0.116,-0.145 0.004,-0.283 l 0.245,-0.281 c 0.743,-0.863 1.323,-0.696 1.966,-0.107 M 9.792,69.095 C 9.624,68.606 9.49,67.754 9.708,66.892 l 0.744,0.061 c -0.265,0.692 -0.231,1.55 -0.108,1.937 0.306,0.914 0.951,1.41 1.734,1.134 0.391,-0.143 0.507,-0.586 0.594,-1.066 0.147,-0.746 0.143,-1.533 0.438,-2.234 0.219,-0.555 0.565,-1.066 1.346,-1.349 1.083,-0.381 2.129,0.45 2.543,1.685 0.136,0.41 0.233,0.951 0.334,1.654 -0.487,0.205 -0.854,0.334 -1.148,0.433 -0.147,0.061 -0.314,0.101 -0.389,-0.136 -0.048,-0.154 -0.028,-0.284 0.472,-0.573 0.211,-0.12 0.368,-0.503 0.125,-1.234 -0.258,-0.794 -0.805,-1.288 -1.55,-1.03 -0.514,0.184 -0.587,1.426 -0.633,1.907 -0.053,0.535 -0.122,1.142 -0.368,1.655 -0.226,0.464 -0.633,0.861 -1.227,1.075 -1.285,0.455 -2.393,-0.42 -2.823,-1.716 m 10.477,6.646 c -0.061,0.017 -0.137,0 -0.381,0.032 l -0.144,-0.517 -0.954,-1.991 -5.887,2.982 -0.655,-1.076 5.999,-3.049 c -0.259,-0.587 -0.76,-1.608 -0.76,-1.608 -0.289,-0.594 -0.366,-0.381 -0.78,-0.259 -0.194,0.053 -0.391,0.083 -0.463,-0.062 -0.097,-0.212 -0.01,-0.296 0.181,-0.395 0.23,-0.122 0.525,-0.262 0.817,-0.397 0.342,-0.162 0.454,0 0.564,0.276 0.134,0.305 0.252,0.572 0.44,1.005 0.558,1.296 1.194,2.576 1.8,3.842 0.115,0.235 0.283,0.449 0.428,0.655 0.037,0.069 0.084,0.115 0.109,0.169 0.025,0.061 0.089,0.258 -0.107,0.359 -0.099,0.05 -0.11,0.043 -0.207,0.034 m 4.492,6.474 C 24.65,82.1 24.467,82.085 24.258,82.144 l -6.622,1.87 -0.589,-0.633 c 1.431,-2.57 2.345,-4.254 3.565,-6.343 0.1,-0.159 0.18,-0.244 0.069,-0.42 -0.22,-0.312 -0.194,-0.411 -0.072,-0.51 0.138,-0.116 0.307,-0.078 0.428,0.112 0.145,0.283 0.451,0.712 0.6,0.946 0.183,0.289 0.06,0.519 -0.087,0.763 l -3.05,5.107 5.393,-1.554 c 0.345,-0.107 -0.341,-0.748 -0.061,-0.969 0.137,-0.105 0.27,-0.044 0.402,0.154 0.156,0.267 0.33,0.533 0.478,0.74 0.147,0.198 0.289,0.343 0.487,0.579 0.158,0.176 0.148,0.352 0.01,0.456 -0.086,0.069 -0.174,0.04 -0.448,-0.227 m 4.646,8.048 c 1.302,-1.73 0.841,-3.934 -0.929,-5.351 -0.436,-0.35 -0.728,-0.564 -0.985,-0.755 -0.211,-0.152 -0.425,-0.305 -0.625,-0.472 -0.215,-0.169 -0.481,-0.413 -0.608,-0.564 -0.109,-0.115 -0.216,-0.259 -0.338,-0.359 -0.137,-0.108 -0.313,-0.115 -0.429,0.039 -0.137,0.173 0.025,0.295 0.209,0.456 0.327,0.298 0.267,0.352 0.044,0.656 L 21.82,89.12 c 0.584,0.404 0.95,0.641 1.432,1.129 0.215,0.22 0.397,0.428 0.539,0.535 2.023,1.622 4.216,1.341 5.616,-0.521 m -1.149,-0.707 c -1.13,1.501 -2.561,2.104 -4.085,0.875 -0.402,-0.319 -0.691,-0.587 -0.889,-0.86 -0.123,-0.162 -0.108,-0.183 0.06,-0.413 l 3.415,-4.522 c 0.154,-0.205 0.248,-0.205 0.417,-0.06 l 0.748,0.601 c 1.913,1.527 1.331,3.044 0.334,4.379 m 5.26,-0.58 C 33.36,88.922 33.31,89.113 33.242,89.25 l -2.799,5.71 -1.144,-0.481 2.843,-5.801 c 0.192,-0.381 0.165,-0.305 -0.137,-0.533 -0.137,-0.107 -0.338,-0.198 -0.244,-0.381 0.087,-0.184 0.244,-0.215 0.451,-0.091 0.245,0.152 0.673,0.411 0.888,0.518 0.215,0.122 0.593,0.283 0.87,0.396 0.208,0.091 0.277,0.244 0.193,0.427 -0.071,0.144 -0.251,0.09 -0.645,-0.038 m 8.35,2.218 c -0.172,0.024 -0.32,0.115 -0.443,0.298 L 37.3,97.337 36.451,97.225 c -0.432,-2.929 -0.745,-4.743 -1.062,-7.173 -0.018,-0.176 -0.006,-0.298 -0.201,-0.359 -0.361,-0.098 -0.399,-0.198 -0.366,-0.352 0.043,-0.176 0.198,-0.267 0.4,-0.183 0.288,0.114 0.785,0.251 1.04,0.343 0.31,0.115 0.359,0.367 0.396,0.647 l 0.727,5.87 3.263,-4.695 c 0.204,-0.298 -0.722,-0.359 -0.636,-0.709 0.047,-0.176 0.183,-0.205 0.402,-0.137 0.281,0.09 1.408,0.183 1.713,0.183 0.234,0.007 0.337,0.09 0.307,0.298 -0.023,0.145 -0.164,0.189 -0.566,0.236 m 9.777,-1.372 c -0.414,0.198 -0.442,0.327 -0.295,0.884 0.172,0.665 1.612,6.114 1.612,6.114 l -1.307,0.342 -1.422,-5.571 -1.443,5.556 -0.595,0.201 -3.282,-4.865 0.375,5.559 -1.145,0.327 -0.414,-6.351 c -0.046,-0.647 -0.141,-0.792 -0.523,-0.823 -0.32,-0.03 -0.458,-0.115 -0.482,-0.289 -0.043,-0.269 0.187,-0.305 0.303,-0.312 0.312,-0.01 1.129,0.029 1.399,0.014 0.23,-0.007 0.353,0.022 0.536,0.289 l 3.376,5.145 1.53,-5.876 c 0.082,-0.289 0.264,-0.427 0.475,-0.487 0.277,-0.071 0.95,-0.33 1.241,-0.406 0.114,-0.03 0.393,-0.046 0.429,0.199 0.024,0.182 -0.098,0.221 -0.368,0.35 m 10.454,-6.283 c -0.132,0.26 -0.097,0.627 -0.046,0.841 l 1.444,6.632 -0.651,0.572 c -2.382,-1.654 -3.965,-2.554 -5.905,-3.957 -0.143,-0.108 -0.22,-0.199 -0.392,-0.091 -0.314,0.198 -0.414,0.168 -0.497,0.037 -0.1,-0.152 -0.062,-0.327 0.136,-0.427 0.274,-0.144 0.717,-0.42 0.944,-0.557 0.296,-0.168 0.504,-0.024 0.738,0.137 l 4.751,3.325 -1.256,-5.581 c -0.071,-0.359 -0.741,0.305 -0.929,0.008 -0.097,-0.161 -0.026,-0.276 0.173,-0.404 0.35,-0.228 0.95,-0.856 1.27,-1.235 0.158,-0.176 0.35,-0.13 0.453,0.024 0.051,0.09 -0.06,0.334 -0.233,0.676 m 11.698,-8.23 c -0.998,-0.649 -1.904,-0.253 -2.594,0.471 0.06,-0.738 -0.231,-1.364 -0.902,-1.791 -0.756,-0.489 -1.893,-0.107 -2.532,0.951 -0.216,0.352 -0.375,0.717 -0.594,1.076 -0.143,0.244 -0.402,0.619 -0.537,0.778 -0.108,0.122 -0.23,0.244 -0.306,0.381 -0.107,0.168 -0.061,0.35 0.086,0.45 0.133,0.076 0.197,0.044 0.403,-0.267 0.252,-0.374 0.314,-0.32 0.626,-0.122 l 0.237,0.161 5.199,3.346 c 0,0 0.443,-0.863 0.55,-1.029 0.222,-0.343 0.442,-0.487 0.67,-0.878 0.777,-1.272 0.783,-2.827 -0.306,-3.527 m -3.949,-0.117 c 0.595,0.382 1.001,0.917 0.429,1.861 l -0.222,0.374 -2.052,-1.328 c -0.159,-0.107 -0.217,-0.137 -0.127,-0.281 l 0.097,-0.168 c 0.438,-0.724 1.152,-0.93 1.875,-0.458 m 3.392,1.251 c 0.716,0.458 0.996,1.227 0.535,1.998 -0.184,0.312 -0.424,0.602 -0.658,0.836 -0.072,0.071 -0.073,0.071 -0.137,0.032 l -2.49,-1.608 0.204,-0.337 c 0.8,-1.319 1.702,-1.47 2.546,-0.921 m -2.517,-6.121 c -0.05,0.168 0.141,0.222 0.27,0.283 l 5.71,2.743 -0.427,1.198 -5.807,-2.797 c -0.368,-0.177 -0.292,-0.161 -0.508,0.168 -0.091,0.144 -0.174,0.349 -0.359,0.259 -0.18,-0.083 -0.216,-0.244 -0.107,-0.456 0.148,-0.262 0.377,-0.703 0.483,-0.932 0.1,-0.237 0.248,-0.625 0.355,-0.906 0.084,-0.23 0.23,-0.306 0.406,-0.215 0.136,0.069 0.096,0.252 -0.016,0.655 m 7.821,-1.457 c -0.158,0.487 -0.539,1.252 -1.219,1.8 l -0.55,-0.503 c 0.609,-0.396 1.083,-1.098 1.209,-1.487 0.291,-0.914 0.072,-1.716 -0.721,-1.973 -0.391,-0.138 -0.751,0.152 -1.097,0.479 -0.555,0.504 -1.001,1.137 -1.652,1.518 -0.499,0.305 -1.069,0.496 -1.863,0.237 -1.084,-0.368 -1.439,-1.678 -1.05,-2.929 0.136,-0.41 0.367,-0.897 0.698,-1.525 0.511,0.138 0.878,0.26 1.172,0.359 0.156,0.054 0.306,0.122 0.235,0.359 -0.051,0.154 -0.143,0.244 -0.712,0.168 -0.244,-0.046 -0.589,0.162 -0.828,0.9 -0.248,0.794 -0.101,1.54 0.64,1.784 0.526,0.183 1.306,-0.77 1.616,-1.122 0.356,-0.396 0.767,-0.846 1.264,-1.088 0.454,-0.237 1.012,-0.305 1.601,-0.108 1.296,0.435 1.67,1.828 1.257,3.131"
   id="path4" />
	</g>
	<g
   id="g22">
		<path
   fill="#822433"
   d="m 169.875,26.299 h -4.16 l 0.694,1.443 c 0.435,0.877 0.506,1.504 0.118,2.314 l -13.857,32.082 3.026,-0.442 5.737,-14.07 h 13.36 l 5.926,14.638 4.224,-0.568 -14.429,-34.952 c -0.142,-0.312 -0.388,-0.445 -0.639,-0.445 z m -7.752,19.708 6.237,-14.509 5.739,14.509 z"
   id="path8" />
		<path
   fill="#822433"
   d="m 126.548,27.808 c 0,-5.94 6.25,-9.197 11.102,-9.197 5.042,0 8.276,2 8.715,4.44 0.504,3.004 0.687,3.131 1.065,3.131 0.439,0 0.439,-0.127 0.439,-0.94 0,-1.936 -0.06,-4.437 -0.184,-6.885 -3.218,-0.618 -7.068,-1.116 -9.589,-1.116 -10.665,0 -14.506,6.366 -14.395,12.148 0.091,4.751 1.737,7.979 6.563,10.305 3.279,1.588 6.867,3.228 10.051,4.569 3.897,1.656 6.957,3.308 6.957,7.359 0,6.251 -5.747,9.766 -11.853,9.766 -2.718,0 -9.019,-1.626 -11.411,-3.688 l -0.886,1.807 c 3.396,2.313 9.393,3.256 12.297,3.256 7.743,0 14.994,-4.631 14.994,-12.508 0,-15.009 -23.865,-11.568 -23.865,-22.447 z"
   id="path10" />
		<path
   fill="#822433"
   d="m 201.295,26.596 c -2.147,0 -5.485,0.249 -7.628,0.249 -1.385,0 -3.403,-0.127 -4.416,-0.313 -1.011,-0.187 -1.757,-0.303 -2.148,-0.303 -0.377,0 -0.62,0.181 -0.62,0.616 0,0.317 0.068,0.748 1.19,0.805 2.9,0.126 3.031,0.82 3.031,3.304 v 31.242 l 4.15,-0.5 V 30.08 c 0,-1.611 0.262,-1.919 1.774,-1.919 8.384,0 10.902,3.227 10.902,8.97 0,4.563 -2.081,8.189 -8.191,8.189 -1.382,0 -2.71,-0.749 -2.961,-0.749 -0.188,0 -0.385,0.372 -0.385,0.496 0,0.625 2.083,1.752 3.66,1.752 7.251,0 12.032,-4.436 12.032,-10.878 -0.001,-5.923 -5.607,-9.345 -10.39,-9.345 z"
   id="path12" />
		<path
   fill="#822433"
   d="m 349.533,62.406 4.218,-0.566 -14.437,-34.956 c -0.123,-0.314 -0.377,-0.438 -0.634,-0.438 h -4.154 l 0.687,1.439 c 0.447,0.878 0.512,1.498 0.133,2.318 L 322.643,59.595 C 317.419,59.07 305.503,58.639 301.71,58.667 L 322.675,27.93 322.359,26.801 H 303.18 c -4.152,0 -4.728,-0.37 -4.915,-0.37 -0.248,0 -0.371,0.247 -0.436,0.562 l -0.51,2.376 c -0.061,0.248 0.126,0.433 0.251,0.433 0.193,0 1.334,-1.307 3.412,-1.307 h 16.747 L 296.085,60.23 c -0.191,0.183 -0.191,0.312 -0.191,0.565 0,0.251 0.132,0.37 0.449,0.37 3.12,-1.07 22.583,-0.198 28.161,0.673 l 5.808,-14.185 h 13.24 z M 337.18,31.639 342.9,46.048 h -11.93 z"
   id="path14" />
		<path
   fill="#822433"
   d="m 294.079,26.182 c -0.821,0 -3.343,0.497 -4.353,0.497 -1.077,0 -3.968,-0.497 -4.852,-0.497 -0.377,0 -0.629,0.187 -0.629,0.62 0,0.314 0.068,0.757 1.199,0.814 2.896,0.126 3.019,0.814 3.019,3.318 V 55.57 L 268.109,27.31 c -0.183,-0.256 -0.374,-0.443 -0.503,-0.632 -1.583,-0.125 -5.611,-0.247 -7.758,-0.497 -0.371,-0.065 -0.569,0.187 -0.569,0.62 0,0.314 0,0.757 1.14,0.814 2.904,0.126 3.027,0.814 3.027,3.318 v 31.262 l 1.947,-0.558 V 31.433 h 0.061 l 22.573,30.763 2.455,-0.5 V 30.934 c 0,-2.504 0.127,-3.192 3.026,-3.318 1.134,-0.057 1.205,-0.5 1.205,-0.814 0,-0.433 -0.263,-0.62 -0.634,-0.62 z"
   id="path16" />
		<path
   fill="#822433"
   d="m 255.358,55.826 c -0.312,0 -0.753,0.123 -1.191,2.497 -0.386,2.314 -1.27,2.002 -2.144,2.192 -1.334,0.242 -4.232,0.307 -5.995,0.307 -1.767,0 -2.833,-0.125 -4.092,-0.307 -1.582,-0.255 -1.64,-0.697 -1.64,-2.756 V 44.942 h 10.724 0.368 l -0.039,-1.383 h -0.33 -10.724 V 28.997 c 0,-0.626 0.375,-0.878 1.32,-0.878 h 6.62 c 0.309,0 1.444,0 2.019,0.127 0.881,0.184 1.768,-0.066 2.142,2.252 0.442,2.371 0.879,2.501 1.199,2.501 0.381,0 0.381,-0.13 0.381,-0.752 0,-1.313 -0.065,-2.943 -0.136,-4.567 -0.061,-1.248 -0.309,-1.248 -1.444,-1.185 -1.64,0.06 -2.966,0.122 -5.235,0.184 -1.954,0.065 -6.68,0.123 -8.322,0.123 -1.386,0 -3.148,-0.123 -4.16,-0.307 -1.008,-0.195 -1.76,-0.313 -2.141,-0.313 -0.378,0 -0.627,0.251 -0.627,0.685 0,0.309 0,0.692 1.127,0.749 2.898,0.126 3.092,0.814 3.092,3.318 v 31.262 l 3.475,-0.238 c 1.627,0 5.861,0.058 7.805,0.119 2.268,0.061 5.107,0.187 6.755,0.247 1.137,0.064 1.383,0 1.442,-1.249 0.065,-1.63 0.13,-3.193 0.13,-4.506 0.001,-0.62 0.001,-0.743 -0.379,-0.743 z"
   id="path18" />
		<path
   fill="#822433"
   d="m 226.274,26.554 c -1.518,0.125 -3.535,0.248 -4.731,0.248 -1.198,0 -3.595,-0.123 -5.113,-0.248 -0.627,-0.06 -0.748,0.125 -0.748,0.5 0,0.313 0.314,0.688 2.399,1.065 1.059,0.191 1.255,1.5 1.255,2.748 V 62.138 L 223.5,61.754 V 30.867 c 0,-1.185 0.125,-2.556 1.381,-2.748 1.636,-0.252 2.148,-0.752 2.148,-1.065 0,-0.375 -0.134,-0.559 -0.755,-0.5 z"
   id="path20" />
	</g>
	<path
   fill="#822433"
   d="m 263.911,88.616 c -0.67,0 -2.072,-0.324 -3.199,-0.246 l -1.521,0.101 V 75.96 c 0,-0.951 0,-1.148 -1.07,-1.199 -0.5,-0.025 -0.596,-0.126 -0.596,-0.324 0,-0.223 0.122,-0.35 0.368,-0.35 0.277,0 0.605,0.075 0.871,0.127 0.403,0.073 1.127,0.122 1.649,0.122 0.5,0 1,-0.024 1.497,-0.048 0.63,-0.025 1.329,-0.051 2.403,-0.051 4.24,0 7.384,2.748 7.384,6.897 10e-4,4.436 -2.915,7.482 -7.786,7.482 M 263.763,74.96 h -1.852 c -0.569,0 -0.814,0.226 -0.814,0.878 v 10.935 c 0,0.771 0.022,0.821 0.546,0.972 0.647,0.197 1.447,0.249 2.447,0.249 3.966,0 5.513,-2.771 5.513,-6.568 0,-3.322 -0.925,-6.466 -5.84,-6.466"
   id="path24" />
	<path
   fill="#822433"
   d="m 278.347,74.96 c -0.456,0.073 -0.456,0.576 -0.456,0.978 v 12.354 l -1.896,0.151 V 75.938 c 0,-0.424 -0.025,-0.904 -0.4,-0.978 -0.799,-0.123 -1.051,-0.148 -1.051,-0.397 0,-0.227 0.109,-0.349 0.429,-0.327 0.6,0.051 1.547,0.1 2.022,0.1 0.474,0 1.275,-0.048 1.872,-0.1 0.328,-0.022 0.431,0.1 0.431,0.327 0,0.221 -0.332,0.3 -0.951,0.397"
   id="path26" />
	<path
   fill="#822433"
   d="m 301.026,88.769 c -0.098,0.098 -0.749,0.15 -1.173,0.076 -0.924,-0.154 -1.525,-0.352 -2.174,-1.328 l -1.072,-1.595 -3.396,-5.466 c -0.523,0.098 -0.647,0.15 -1.698,0.15 h -0.669 v 7.639 l -2.001,0.276 V 72.716 c 0,-1.201 -0.024,-1.45 -1.399,-1.523 -0.573,-0.025 -0.695,-0.05 -0.695,-0.301 0,-0.323 0.195,-0.374 0.417,-0.374 0.223,0 0.605,0.078 1.105,0.147 0.499,0.078 1.619,0.176 2.293,0.176 1.123,0 2.275,-0.15 3.396,-0.15 2.5,0 4.643,1.476 4.643,4.094 0,2.526 -1.922,4.671 -3.473,5.168 l 3.098,5.067 c 0.9,1.45 1.397,2.421 2.75,3.375 0.172,0.125 0.195,0.273 0.047,0.399 v -0.025 z m -8.442,-17.427 h -1.098 c -0.421,0 -0.641,0.325 -0.641,0.85 v 7.664 c 0.396,0.048 0.569,0.078 1.07,0.078 3.94,0 4.545,-2.8 4.545,-4.775 0,-2.319 -0.927,-3.817 -3.876,-3.817"
   id="path28" />
	<path
   fill="#822433"
   d="m 310.042,88.615 c -4.265,0 -7.434,-3.045 -7.434,-7.264 0,-4.444 3.742,-7.265 7.434,-7.265 3.872,0 7.444,2.622 7.444,7.265 -10e-4,4.219 -3.171,7.264 -7.444,7.264 m 0,-13.83 c -2.994,0 -5.339,2.199 -5.339,6.541 0,3.822 1.793,6.596 5.339,6.596 3.824,0 5.345,-2.774 5.345,-6.596 0,-4.442 -2.601,-6.541 -5.345,-6.541"
   id="path30" />
	<path
   fill="#822433"
   d="m 337.805,74.76 c -1.22,0.053 -1.199,0.525 -1.076,1.649 0.151,1.32 1.428,11.858 1.428,11.858 l -2.122,0.202 -1.252,-11.612 -4.668,10.76 -0.871,0.152 -5.269,-10.961 -0.897,11.458 -1.802,0.224 c 1.1,-14.358 0.975,-11.986 1.029,-12.554 0.097,-0.906 0,-1.126 -1.079,-1.179 -0.523,-0.025 -0.6,-0.22 -0.6,-0.393 0,-0.28 0.202,-0.305 0.403,-0.28 0.601,0.075 2,0.126 2.525,0.176 0.346,0.024 0.5,0.104 0.748,0.601 l 5.466,11.304 4.796,-11.259 c 0.195,-0.472 0.497,-0.623 0.845,-0.647 0.548,-0.05 1.924,-0.075 2.497,-0.152 0.226,-0.024 0.5,0.051 0.5,0.299 -0.001,0.182 -0.075,0.329 -0.601,0.354"
   id="path32" />
	<path
   fill="#822433"
   d="m 352.076,88.492 -2.346,-5.744 h -5.142 l -2.249,5.52 -1.503,0.202 5.571,-12.784 c 0.127,-0.298 0.104,-0.475 -0.051,-0.799 l -0.346,-0.753 h 1.842 c 0.155,0 0.306,0.101 0.378,0.253 L 354,88.243 Z m -4.822,-11.985 -2.268,5.495 h 4.368 z"
   id="path34" />
	<path
   fill="#822433"
   d="m 138.457,71.416 c -0.579,0.098 -0.579,0.824 -0.604,1.273 0,0.176 -0.126,6.44 -0.497,9.362 -0.277,2.072 -1.177,6.64 -6.266,6.64 -5.117,0 -6.445,-3.99 -6.787,-6.689 -0.205,-1.447 -0.277,-5.841 -0.277,-8.114 0,-0.721 -0.048,-1.199 -0.048,-1.199 -0.025,-0.551 -0.025,-1.197 -0.5,-1.273 -1.148,-0.201 -1.3,-0.224 -1.3,-0.399 0,-0.301 0.176,-0.327 0.497,-0.301 0.752,0.051 1.771,0.101 2.375,0.101 0.593,0 1.419,-0.05 2.166,-0.101 0.334,-0.026 0.503,0 0.503,0.301 0,0.174 -0.226,0.249 -1.148,0.399 -0.525,0.098 -0.626,0.65 -0.597,1.273 0,0 0.072,5.742 0.22,8.562 0.252,4.394 2.127,6.669 4.897,6.669 3.415,0 4.988,-2.799 5.24,-6.467 0.202,-2.896 0.202,-5.545 0.202,-8.211 v -0.554 c 0,-0.551 -0.026,-1.197 -0.503,-1.273 -1.148,-0.201 -1.298,-0.224 -1.298,-0.399 0,-0.301 0.174,-0.327 0.503,-0.301 0.745,0.051 1.516,0.101 2.122,0.101 0.601,0 1,-0.05 1.749,-0.101 0.323,-0.026 0.497,0 0.497,0.301 -0.001,0.176 -0.224,0.251 -1.146,0.4"
   id="path36" />
	<path
   fill="#822433"
   d="m 155.426,74.76 c -1.069,0.053 -1.069,0.249 -1.069,1.201 v 1.221 11.061 l -1.149,0.249 -8.785,-11.881 v 11.606 l -1.028,0.302 V 76.409 75.96 c 0,-0.951 0,-1.148 -1.075,-1.201 -0.522,-0.025 -0.572,-0.126 -0.572,-0.299 0,-0.226 0.1,-0.399 0.378,-0.374 0.843,0.101 2.073,0.148 2.739,0.199 l 8.443,11.559 V 77.18 75.959 c 0,-0.951 0,-1.148 -1.076,-1.201 -0.497,-0.025 -0.598,-0.098 -0.598,-0.299 0,-0.248 0.148,-0.374 0.375,-0.374 0.346,0 1.498,0.199 1.925,0.199 0.397,0 1.395,-0.199 1.723,-0.199 0.226,0 0.374,0.126 0.374,0.374 0,0.203 -0.1,0.276 -0.605,0.301"
   id="path38" />
	<path
   fill="#822433"
   d="m 162.321,74.96 c -0.445,0.073 -0.445,0.576 -0.445,0.978 v 12.354 l -1.904,0.151 V 75.938 c 0,-0.424 -0.026,-0.904 -0.399,-0.978 -0.799,-0.123 -1.048,-0.148 -1.048,-0.397 0,-0.227 0.101,-0.349 0.42,-0.327 0.602,0.051 1.552,0.1 2.026,0.1 0.475,0 1.275,-0.048 1.875,-0.1 0.325,-0.022 0.421,0.1 0.421,0.327 0,0.221 -0.317,0.3 -0.946,0.397"
   id="path40" />
	<path
   fill="#822433"
   d="m 178.651,74.864 c -0.454,0.073 -0.704,0.447 -0.875,0.87 l -4.991,12.559 -1.328,0.151 -5.016,-12.459 c -0.125,-0.277 -0.231,-0.699 -0.399,-0.951 -0.101,-0.169 -0.253,-0.248 -0.577,-0.273 -0.5,-0.024 -0.596,-0.098 -0.596,-0.299 0,-0.226 0.15,-0.399 0.399,-0.374 0.595,0.075 1.594,0.101 2.119,0.148 0.548,0.051 0.699,0.45 0.852,0.875 l 4.293,11.36 4.268,-10.763 c 0.126,-0.296 -0.072,-0.698 -0.422,-0.746 -0.95,-0.148 -1.073,-0.299 -1.073,-0.421 0,-0.204 0.071,-0.325 0.424,-0.305 0.598,0.051 1.224,0.101 1.696,0.101 0.478,0 0.87,-0.05 1.472,-0.101 0.352,-0.021 0.424,0.101 0.424,0.305 -0.002,0.144 -0.15,0.219 -0.67,0.323"
   id="path42" />
	<path
   fill="#822433"
   d="m 189.364,87.921 c -0.022,0.572 -0.198,0.622 -0.699,0.598 -1.922,-0.075 -3.843,-0.276 -5.769,-0.15 l -1.494,0.101 V 75.939 c 0,-0.953 -0.025,-1.155 -1.107,-1.203 -0.49,-0.026 -0.571,-0.101 -0.571,-0.298 0,-0.224 0.127,-0.35 0.381,-0.35 0.27,0 0.595,0.073 0.871,0.126 0.4,0.073 1.097,0.122 1.624,0.122 1.799,0 3.57,-0.048 5.363,-0.122 0.503,-0.025 0.673,0 0.701,0.571 0.024,0.652 0.05,1.303 0.05,1.8 0,0.377 -0.078,0.424 -0.271,0.424 -0.428,0 -0.328,-1.523 -0.755,-1.796 -0.32,-0.202 -1.246,-0.274 -1.449,-0.274 h -2.541 c -0.377,0 -0.399,0.072 -0.399,0.222 v 5.821 h 2.664 c 0.328,0 1.029,-0.026 1.102,-0.45 0.176,-0.922 0.251,-1.098 0.474,-1.098 0.277,0 0.301,0.176 0.277,0.424 -0.048,0.572 -0.102,0.997 -0.102,1.449 0,0.447 0.054,0.897 0.102,1.469 0.024,0.251 0,0.429 -0.277,0.429 -0.223,0 -0.298,-0.179 -0.474,-1.1 -0.073,-0.425 -0.676,-0.474 -1.102,-0.474 H 183.3 v 5.091 c 0,0.796 0.022,0.899 0.547,0.974 0.478,0.078 0.903,0.126 1.6,0.126 0.449,0 2.617,-0.024 2.918,-0.226 0.427,-0.271 0.324,-1.871 0.773,-1.871 0.205,0 0.274,0.048 0.274,0.421 0,0.498 -0.021,1.125 -0.048,1.775"
   id="path44" />
	<path
   fill="#822433"
   d="m 203.259,88.741 c -0.904,0 -1.576,-0.32 -2.101,-1.072 l -0.877,-1.274 -2.814,-4.292 c -0.42,0.097 -0.569,0.097 -1.047,0.097 h -0.526 v 6.068 l -1.899,0.224 V 75.96 c 0,-0.926 -0.024,-1.148 -1.095,-1.199 -0.5,-0.025 -0.577,-0.126 -0.577,-0.299 0,-0.248 0.151,-0.375 0.375,-0.375 0.27,0 0.598,0.075 0.877,0.127 0.397,0.073 1.546,0.122 2.07,0.122 0.9,0 1.822,-0.1 2.718,-0.1 2,0 3.869,1.154 3.869,3.27 0,2.324 -1.893,3.745 -2.995,4.149 3.198,4.765 2.495,3.718 3.727,5.589 0.174,0.273 0.544,0.677 0.848,0.949 0.174,0.148 0.346,0.177 0.346,0.377 0,0.171 -0.547,0.171 -0.899,0.171 M 197.27,74.888 h -0.724 c -0.5,0 -0.651,0.244 -0.651,0.597 v 6.02 c 0.299,0.022 0.45,0.05 0.849,0.05 3.121,0 3.468,-2.124 3.468,-3.698 -10e-4,-1.85 -0.601,-2.969 -2.942,-2.969"
   id="path46" />
	<path
   fill="#822433"
   d="m 210.178,88.616 c -0.926,0 -2.497,-0.276 -3.668,-1.07 l 0.375,-0.875 c 0.871,0.751 2.466,1.251 3.293,1.251 1.9,0 3.371,-0.953 3.371,-2.824 0,-0.994 -0.872,-1.573 -1.647,-2.022 -1.251,-0.724 -2.595,-1.223 -3.668,-2.223 -0.827,-0.748 -1.473,-1.642 -1.473,-3.243 0,-2.095 1.972,-3.522 4.372,-3.522 0.792,0 1.792,0.148 2.914,0.374 0.054,0.875 0.054,1.648 0.054,2.246 0,0.276 0,0.427 -0.251,0.427 -0.249,0 -0.325,-0.151 -0.476,-1.073 -0.122,-0.672 -0.845,-1.224 -2.368,-1.224 -1.654,0 -3.073,0.776 -3.073,2.545 0,0.55 0.32,0.875 0.726,1.249 0.623,0.6 1.645,1.022 2.418,1.4 0.951,0.446 1.925,0.949 2.653,1.692 0.644,0.676 1.069,1.655 1.069,2.849 -0.002,2.571 -2.123,4.043 -4.621,4.043"
   id="path48" />
	<path
   fill="#822433"
   d="m 221.311,74.96 c -0.445,0.073 -0.445,0.576 -0.445,0.978 v 12.354 l -1.906,0.151 V 75.938 c 0,-0.424 -0.019,-0.904 -0.396,-0.978 -0.796,-0.123 -1.05,-0.148 -1.05,-0.397 0,-0.227 0.102,-0.349 0.425,-0.327 0.601,0.051 1.545,0.1 2.021,0.1 0.481,0 1.275,-0.048 1.879,-0.1 0.324,-0.022 0.418,0.1 0.418,0.327 0.001,0.221 -0.316,0.3 -0.946,0.397"
   id="path50" />
	<path
   fill="#822433"
   d="m 236.652,75.311 -0.798,-0.152 h -4.463 v 13.134 l -1.907,0.199 V 75.159 c -1.172,-0.026 -3.517,0 -3.517,0 -1.044,0 -1.174,0.23 -1.269,0.751 -0.051,0.251 0,1.098 -0.375,1.098 h -0.051 c -0.249,0 -0.301,-0.15 -0.301,-0.424 0,-0.497 0,-1.148 0.025,-1.799 0.026,-0.572 0.199,-0.597 0.702,-0.572 0.649,0.022 1.198,0.05 2.095,0.073 2.67,0.101 5.395,0.048 8.065,0.048 0.695,0 1.489,-0.248 1.84,-0.248 0.104,0 0.276,0.047 0.276,0.248 0.001,0.375 -0.124,0.426 -0.322,0.977"
   id="path52" />
	<path
   fill-rule="evenodd"
   clip-rule="evenodd"
   fill="#822433"
   d="m 244.352,73.197 h 0.706 l -2.941,-2.94 c -0.325,-0.321 -0.54,-0.457 -0.764,-0.457 -0.363,0 -0.705,0.259 -0.705,0.742 0,0.298 0.147,0.46 0.866,0.904 z m -0.996,3.31 -2.277,5.495 h 4.376 z m 4.814,11.986 -2.346,-5.744 h -5.142 l -2.248,5.52 -1.5,0.202 5.568,-12.784 c 0.125,-0.298 0.1,-0.475 -0.048,-0.799 l -0.349,-0.753 h 1.847 c 0.145,0 0.298,0.101 0.379,0.253 l 5.765,13.855 z"
   id="path54" />
</g>
</svg>
