<?xml version="1.0" encoding="UTF-8" standalone="no"?>
<svg
   width="1e3"
   height="210"
   version="1.1"
   viewBox="0 0 264.58 55.563"
   id="svg32"
   sodipodi:docname="SDU_logo - Copia.svg"
   inkscape:version="1.1 (c68e22c387, 2021-05-23)"
   xmlns:inkscape="http://www.inkscape.org/namespaces/inkscape"
   xmlns:sodipodi="http://sodipodi.sourceforge.net/DTD/sodipodi-0.dtd"
   xmlns="http://www.w3.org/2000/svg"
   xmlns:svg="http://www.w3.org/2000/svg"
   xmlns:rdf="http://www.w3.org/1999/02/22-rdf-syntax-ns#"
   xmlns:cc="http://creativecommons.org/ns#"
   xmlns:dc="http://purl.org/dc/elements/1.1/">
  <defs
     id="defs36" />
  <sodipodi:namedview
     id="namedview34"
     pagecolor="#ffffff"
     bordercolor="#cccccc"
     borderopacity="1"
     inkscape:pageshadow="0"
     inkscape:pageopacity="1"
     inkscape:pagecheckerboard="0"
     showgrid="false"
     inkscape:zoom="1.27"
     inkscape:cx="499.6063"
     inkscape:cy="103.54331"
     inkscape:window-width="1920"
     inkscape:window-height="1001"
     inkscape:window-x="-9"
     inkscape:window-y="-9"
     inkscape:window-maximized="1"
     inkscape:current-layer="svg32" />
  <metadata
     id="metadata2">
    <rdf:RDF>
      <cc:Work
         rdf:about="">
        <dc:format>image/svg+xml</dc:format>
        <dc:type
           rdf:resource="http://purl.org/dc/dcmitype/StillImage" />
      </cc:Work>
    </rdf:RDF>
  </metadata>
  <rect
     style="fill:#ffffff;fill-opacity:0.8;stroke-width:1.49994;stroke-miterlimit:10;stroke-dasharray:5.98575, 5.98575;stroke-opacity:0;paint-order:stroke fill markers"
     id="rect875"
     width="273.75244"
     height="64.792252"
     x="-4.5862317"
     y="-5.2083802" />
  <g
     transform="matrix(.7636 0 0 .7636 -37.602 -55.428)"
     fill="#211e1e"
     id="g30">
    <g
       transform="translate(64.706 117.96)"
       id="g6">
      <path
         d="m15.922-23.594c-1.3359 0-2.5703 0.25781-3.7031 0.76562-1.1367 0.5-2.125 1.1836-2.9688 2.0469-0.83594 0.86719-1.4844 1.8828-1.9531 3.0469-0.46875 1.1562-0.70312 2.4023-0.70312 3.7344 0 1.3672 0.24219 2.6367 0.73438 3.8125 0.5 1.168 1.1758 2.1797 2.0312 3.0312 0.85156 0.85547 1.8594 1.5273 3.0156 2.0156 1.1641 0.49219 2.4258 0.73438 3.7812 0.73438 1.8438 0 3.4141-0.37891 4.7188-1.1406 1.3125-0.75781 2.3789-1.6719 3.2031-2.7344l3.7188 3.3281c-1.25 1.5938-2.875 2.8867-4.875 3.875-2 0.99219-4.293 1.4844-6.875 1.4844-2.1875 0-4.1953-0.375-6.0156-1.125-1.8125-0.75-3.3711-1.7695-4.6719-3.0625-1.3047-1.2891-2.3242-2.8164-3.0625-4.5781-0.73047-1.7578-1.0938-3.6406-1.0938-5.6406s0.35938-3.8789 1.0781-5.6406c0.71875-1.7578 1.7227-3.2852 3.0156-4.5781 1.2891-1.2891 2.8438-2.3125 4.6562-3.0625 1.8203-0.75 3.8203-1.125 6-1.125 2.082 0 3.9883 0.36719 5.7188 1.0938 1.7383 0.71875 3.25 1.6875 4.5312 2.9062l-3.4844 3.6875c-0.85547-0.85156-1.8555-1.5469-3-2.0781-1.1484-0.53125-2.4141-0.79688-3.7969-0.79688z"
         id="path4" />
    </g>
    <g
       transform="translate(93.306 117.96)"
       id="g10">
      <path
         d="m8.5938-11.406v11.406h-5.3906v-28h10.516c1.8125 0 3.2852 0.21484 4.4219 0.64062 1.1328 0.42969 2.0859 1.0547 2.8594 1.875 0.69531 0.71875 1.2383 1.5898 1.625 2.6094 0.38281 1.0117 0.57812 2.0742 0.57812 3.1875 0 1.125-0.19531 2.1992-0.57812 3.2188-0.38672 1.0117-0.92969 1.875-1.625 2.5938-0.77344 0.79297-1.7266 1.4023-2.8594 1.8281-1.1367 0.42969-2.6094 0.64062-4.4219 0.64062zm4.8906-4.7969c0.92578 0 1.6445-0.09766 2.1562-0.29688 0.50781-0.19531 0.92188-0.46875 1.2344-0.8125 0.61328-0.66406 0.92188-1.457 0.92188-2.375 0-0.92578-0.30859-1.7227-0.92188-2.3906-0.3125-0.34375-0.72656-0.61328-1.2344-0.8125-0.51172-0.20703-1.2305-0.3125-2.1562-0.3125h-4.8906v7z"
         id="path8" />
    </g>
    <g
       transform="translate(116.51 117.96)"
       id="g14">
      <path
         d="m1.4062-9.6875c0-1.3828 0.25391-2.6953 0.76562-3.9375 0.51953-1.2383 1.2383-2.3125 2.1562-3.2188 0.92578-0.90625 2.0195-1.625 3.2812-2.1562 1.2695-0.53125 2.6406-0.79688 4.1094-0.79688s2.832 0.26562 4.0938 0.79688c1.2695 0.53125 2.3633 1.25 3.2812 2.1562 0.92578 0.90625 1.6484 1.9805 2.1719 3.2188 0.51953 1.2422 0.78125 2.5547 0.78125 3.9375 0 1.418-0.26172 2.7344-0.78125 3.9531-0.52344 1.2109-1.2461 2.2773-2.1719 3.2031-0.91797 0.91797-2.0117 1.6367-3.2812 2.1562-1.2617 0.51953-2.625 0.78125-4.0938 0.78125s-2.8398-0.26172-4.1094-0.78125c-1.2617-0.51953-2.3555-1.2383-3.2812-2.1562-0.91797-0.92578-1.6367-1.9922-2.1562-3.2031-0.51172-1.2188-0.76562-2.5352-0.76562-3.9531zm5.1875 0c0 0.73047 0.125 1.4141 0.375 2.0469 0.25781 0.63672 0.60938 1.1992 1.0469 1.6875 0.44531 0.48047 0.98438 0.85938 1.6094 1.1406 0.625 0.27344 1.3203 0.40625 2.0938 0.40625 0.75 0 1.4414-0.13281 2.0781-0.40625 0.64453-0.28125 1.1875-0.66016 1.625-1.1406 0.4375-0.48828 0.78125-1.0508 1.0312-1.6875 0.25781-0.63281 0.39062-1.3164 0.39062-2.0469 0-0.71875-0.13281-1.3984-0.39062-2.0469-0.25-0.65625-0.59375-1.2227-1.0312-1.7031-0.4375-0.47656-0.98047-0.85938-1.625-1.1406-0.63672-0.28125-1.3281-0.42188-2.0781-0.42188-0.77344 0-1.4688 0.14062-2.0938 0.42188s-1.1641 0.66406-1.6094 1.1406c-0.4375 0.48047-0.78906 1.0469-1.0469 1.7031-0.25 0.64844-0.375 1.3281-0.375 2.0469z"
         id="path12" />
    </g>
    <path
       transform="translate(139.95 117.96)"
       d="m3-19.406h5v1.5625c0.76953-0.61328 1.6289-1.0938 2.5781-1.4375 0.94531-0.34375 1.9844-0.51562 3.1094-0.51562 1.3008 0 2.5312 0.26172 3.6875 0.78125 1.1641 0.52344 2.1797 1.2344 3.0469 2.1406 0.86328 0.90625 1.5391 1.9766 2.0312 3.2031 0.5 1.2188 0.75 2.5469 0.75 3.9844 0 1.3359-0.21484 2.5859-0.64062 3.75-0.42969 1.1562-1.0273 2.1797-1.7969 3.0625-0.85547 1.0117-1.9375 1.8125-3.25 2.4062-1.3047 0.58203-2.6719 0.875-4.1094 0.875-1.9492 0-3.6836-0.58594-5.2031-1.7656v10.953h-5.2031zm5.2031 12.609c0.5 0.71875 1.1562 1.2969 1.9688 1.7344 0.82031 0.4375 1.7227 0.65625 2.7031 0.65625 0.71875 0 1.3906-0.12891 2.0156-0.39062 0.63281-0.26953 1.1797-0.63281 1.6406-1.0938 0.46875-0.46875 0.82812-1.0195 1.0781-1.6562 0.25781-0.64453 0.39062-1.3594 0.39062-2.1406 0-0.6875-0.12109-1.3477-0.35938-1.9844-0.24219-0.64453-0.57422-1.2109-1-1.7031-0.42969-0.5-0.95312-0.89453-1.5781-1.1875-0.625-0.28906-1.3125-0.4375-2.0625-0.4375-1.0117 0-1.9336 0.21875-2.7656 0.65625-0.82422 0.4375-1.5 1.0234-2.0312 1.75z"
       id="path16" />
    <g
       id="g26">
      <path
         d="m56.691 104.88h2.8359v28.344h-2.8359z"
         id="path18" />
      <path
         d="m56.691 130.39h70.867v2.832h-70.867z"
         id="path20" />
      <path
         d="m170.08 85.039h2.8359v28.348h-2.8359z"
         id="path22" />
      <path
         d="m127.56 85.039h45.355v2.8359h-45.355z"
         id="path24" />
    </g>
    <path
       d="m209.67 122.25c4.2383 3.8906 9.3672 6.1914 14.902 6.1914 7.4258 0 13.965-5.0703 13.965-12.375 0-13.898-19.031-11.844-19.031-18.504 0-3.1758 3.3633-4.4727 6.3633-4.4727 2.7109 0 5.4805 1.1758 7.1289 2.7109l4.1289-5.8945c-3.8867-2.8828-7.7773-3.8867-11.965-3.8867-6.832 0-13.605 4.2422-13.605 11.605 0 13.156 19.027 10.367 19.027 18.562 0 3-2.4766 5.1797-6.0117 5.1797-3.7656 0-7.3633-1.9453-9.7188-4.5352zm63.035-15.02c0-4.9805-2.8516-13.551-13.551-13.551h-5.8906v27.105h5.8906c10.699 0 13.551-8.5742 13.551-13.555m7.9531 0c0 1.5664-0.1875 20.625-22.387 20.625h-12.961v-41.246h12.961c22.199 0 22.387 19.055 22.387 20.621m41.824-20.621h-7.957l4e-3 24.449c0 10.152-8.6094 10.309-9.7227 10.309-1.1094 0-9.7148-0.15625-9.7148-10.312l-4e-3 -24.445h-7.9531v23.859c0 12.785 8.3984 17.973 17.672 17.973 9.2773 0 17.676-5.1875 17.676-17.973zm49.523-6.3594c-16.504 3.5977-22.848 12.297-22.848 18.734 17.238-2.0859 15.133-12.895 22.848-18.734m17.695 29.195c-3.5039 0.84766-10.289 1.8945-14.805 1.8945-9.3281 0-11.41-5.3242-11.875-7.6211-3.6406-0.82422-9.6406-0.39062-12.531 0.26953 2.8477 0.625 4.5352 2.8242 5.043 6.8906 0.33985-0.1211 1.7656-0.58985 3.2383-0.58985 3.168 0 5.8516 3.6524 5.8516 7.6953 0 5.9844-3.3633 10.422-6.6094 10.422-2.2148 0-2.9023-1.0781-3.6523-1.0781s-1.3516 1.1133-3.4805 1.1133c-3.3047 0-6.9492-4.9024-6.9492-10.477 0-2.5742 1.3789-7.7109 6.8398-7.7109 1.3945 0 2.1016 0.36328 2.2695 0.46484-0.0937-2.8164-2.1133-5.3477-5.7578-5.3477-3.0938 0-10.613 2.9844-16.051 7.5898l-1.6133-2.2578c5.1172-3.8359 16.105-9.332 28.84-9.332 1.7578 0 3.3633 0.12891 4.6992 0.35157 0.61719-1.6406 2.543-4.8242 8.2227-4.8242 8.9023 0 15.473 7.5742 18.32 12.547"
       id="path28" />
  </g>
</svg>
